%TF.GenerationSoftware,KiCad,Pcbnew,7.0.10*%
%TF.CreationDate,2024-02-18T18:22:22+01:00*%
%TF.ProjectId,flippy_multisensor,666c6970-7079-45f6-9d75-6c746973656e,rev?*%
%TF.SameCoordinates,Original*%
%TF.FileFunction,Copper,L2,Bot*%
%TF.FilePolarity,Positive*%
%FSLAX46Y46*%
G04 Gerber Fmt 4.6, Leading zero omitted, Abs format (unit mm)*
G04 Created by KiCad (PCBNEW 7.0.10) date 2024-02-18 18:22:22*
%MOMM*%
%LPD*%
G01*
G04 APERTURE LIST*
%TA.AperFunction,ComponentPad*%
%ADD10R,1.700000X1.700000*%
%TD*%
%TA.AperFunction,ComponentPad*%
%ADD11O,1.700000X1.700000*%
%TD*%
%TA.AperFunction,ViaPad*%
%ADD12C,0.800000*%
%TD*%
%TA.AperFunction,ViaPad*%
%ADD13C,0.500000*%
%TD*%
%TA.AperFunction,Conductor*%
%ADD14C,0.250000*%
%TD*%
%TA.AperFunction,Conductor*%
%ADD15C,0.300000*%
%TD*%
G04 APERTURE END LIST*
D10*
%TO.P,J2,1*%
%TO.N,+3.3V*%
X26295000Y-5750000D03*
D11*
%TO.P,J2,2*%
%TO.N,unconnected-(J2-Pad2)*%
X23755000Y-5750000D03*
%TO.P,J2,3*%
%TO.N,GND*%
X21215000Y-5750000D03*
%TO.P,J2,4*%
%TO.N,unconnected-(J2-Pad4)*%
X18675000Y-5750000D03*
%TO.P,J2,5*%
%TO.N,TX UART*%
X16135000Y-5750000D03*
%TO.P,J2,6*%
%TO.N,RX UART*%
X13595000Y-5750000D03*
%TO.P,J2,7*%
%TO.N,SDA*%
X11055000Y-5750000D03*
%TO.P,J2,8*%
%TO.N,SCL*%
X8515000Y-5750000D03*
%TO.P,J2,9*%
%TO.N,unconnected-(J2-Pad9)*%
X5975000Y-5750000D03*
%TO.P,J2,10*%
%TO.N,GND*%
X3435000Y-5750000D03*
%TD*%
D10*
%TO.P,J1,1*%
%TO.N,+5V*%
X61855000Y-5750000D03*
D11*
%TO.P,J1,2*%
%TO.N,unconnected-(J1-Pad2)*%
X59315000Y-5750000D03*
%TO.P,J1,3*%
%TO.N,unconnected-(J1-Pad3)*%
X56775000Y-5750000D03*
%TO.P,J1,4*%
%TO.N,unconnected-(J1-Pad4)*%
X54235000Y-5750000D03*
%TO.P,J1,5*%
%TO.N,unconnected-(J1-Pad5)*%
X51695000Y-5750000D03*
%TO.P,J1,6*%
%TO.N,unconnected-(J1-Pad6)*%
X49155000Y-5750000D03*
%TO.P,J1,7*%
%TO.N,unconnected-(J1-Pad7)*%
X46615000Y-5750000D03*
%TO.P,J1,8*%
%TO.N,GND*%
X44075000Y-5750000D03*
%TD*%
D12*
%TO.N,GND*%
X29500000Y-7250000D03*
D13*
%TO.N,SDA*%
X27213223Y-7382462D03*
%TO.N,SCL*%
X28104570Y-7970685D03*
D12*
%TO.N,GND*%
X44050000Y-13650000D03*
X26300000Y-2150000D03*
X32300000Y-6850000D03*
X26300000Y-13650000D03*
X44050000Y-2150000D03*
D13*
%TO.N,+3.3V*%
X34600000Y-12250000D03*
%TO.N,SCL*%
X34000000Y-11750000D03*
X32500000Y-10850000D03*
%TD*%
D14*
%TO.N,SDA*%
X12687462Y-7382462D02*
X27213223Y-7382462D01*
D15*
%TO.N,+3.3V*%
X28754570Y-8004570D02*
X28754570Y-7701446D01*
D14*
%TO.N,SDA*%
X11055000Y-5750000D02*
X12687462Y-7382462D01*
D15*
%TO.N,+3.3V*%
X33400000Y-12650000D02*
X28754570Y-8004570D01*
D14*
%TO.N,SCL*%
X8515000Y-5750000D02*
X10735685Y-7970685D01*
X10735685Y-7970685D02*
X28104570Y-7970685D01*
D15*
%TO.N,+3.3V*%
X27435587Y-6382463D02*
X26495719Y-6382463D01*
X34600000Y-12250000D02*
X34200000Y-12650000D01*
X34200000Y-12650000D02*
X33400000Y-12650000D01*
X28754570Y-7701446D02*
X27435587Y-6382463D01*
D14*
%TO.N,SCL*%
X34000000Y-11750000D02*
X33400000Y-11750000D01*
X34000000Y-11750000D02*
X34000000Y-11666116D01*
X33400000Y-11750000D02*
X32500000Y-10850000D01*
%TD*%
%TA.AperFunction,Conductor*%
%TO.N,GND*%
G36*
X64350099Y-25500D02*
G01*
X64350099Y-25499D01*
X64351068Y-25500D01*
X64361133Y-25914D01*
X64521949Y-39123D01*
X64544770Y-43173D01*
X64606462Y-60198D01*
X64610187Y-61291D01*
X64701306Y-89645D01*
X64717503Y-95963D01*
X64753859Y-113174D01*
X64783462Y-127188D01*
X64789436Y-130216D01*
X64868392Y-172957D01*
X64880894Y-180720D01*
X64942122Y-223972D01*
X64949543Y-229646D01*
X65017429Y-285750D01*
X65026316Y-293852D01*
X65046886Y-314526D01*
X65079561Y-347365D01*
X65087636Y-356311D01*
X65143381Y-424454D01*
X65149025Y-431912D01*
X65167318Y-458084D01*
X65191975Y-493362D01*
X65199680Y-505913D01*
X65242012Y-585056D01*
X65245010Y-591043D01*
X65275906Y-657157D01*
X65282149Y-673403D01*
X65310028Y-764597D01*
X65311141Y-768460D01*
X65328719Y-833421D01*
X65332377Y-853160D01*
X65345219Y-978388D01*
X65345348Y-979719D01*
X65348982Y-1019363D01*
X65349500Y-1030682D01*
X65349500Y-14668245D01*
X65348772Y-14681666D01*
X65344465Y-14721226D01*
X65344316Y-14722528D01*
X65329072Y-14850007D01*
X65325200Y-14869274D01*
X65306265Y-14935706D01*
X65305126Y-14939472D01*
X65275464Y-15032265D01*
X65269172Y-15048102D01*
X65236834Y-15115574D01*
X65233846Y-15121408D01*
X65189866Y-15201952D01*
X65182232Y-15214184D01*
X65137839Y-15276876D01*
X65132260Y-15284166D01*
X65074944Y-15353584D01*
X65067006Y-15362316D01*
X65012316Y-15417006D01*
X65003584Y-15424944D01*
X64934166Y-15482260D01*
X64926876Y-15487839D01*
X64864184Y-15532232D01*
X64851952Y-15539866D01*
X64771408Y-15583846D01*
X64765574Y-15586834D01*
X64698102Y-15619172D01*
X64682265Y-15625464D01*
X64589472Y-15655126D01*
X64585706Y-15656265D01*
X64519274Y-15675200D01*
X64500006Y-15679072D01*
X64372467Y-15694322D01*
X64371168Y-15694470D01*
X64331678Y-15698770D01*
X64318255Y-15699499D01*
X36274310Y-15699499D01*
X36273605Y-15699361D01*
X36249995Y-15699458D01*
X36249616Y-15699616D01*
X36232413Y-15716819D01*
X36232295Y-15716995D01*
X28836111Y-23113181D01*
X28774788Y-23146666D01*
X28748430Y-23149500D01*
X8351569Y-23149500D01*
X8284530Y-23129815D01*
X8263888Y-23113181D01*
X36819Y-14886111D01*
X3334Y-14824788D01*
X500Y-14798430D01*
X500Y-14281187D01*
X14049500Y-14281187D01*
X14069794Y-14415823D01*
X14088604Y-14540615D01*
X14088605Y-14540617D01*
X14088606Y-14540623D01*
X14165938Y-14791326D01*
X14279767Y-15027696D01*
X14279768Y-15027697D01*
X14279770Y-15027700D01*
X14279772Y-15027704D01*
X14385035Y-15182096D01*
X14427567Y-15244479D01*
X14606014Y-15436801D01*
X14606018Y-15436804D01*
X14606019Y-15436805D01*
X14811143Y-15600386D01*
X15038357Y-15731568D01*
X15282584Y-15827420D01*
X15538370Y-15885802D01*
X15538376Y-15885802D01*
X15538379Y-15885803D01*
X15734484Y-15900499D01*
X15734503Y-15900499D01*
X15734506Y-15900500D01*
X15734508Y-15900500D01*
X15865492Y-15900500D01*
X15865494Y-15900500D01*
X15865496Y-15900499D01*
X15865515Y-15900499D01*
X16061620Y-15885803D01*
X16061622Y-15885802D01*
X16061630Y-15885802D01*
X16317416Y-15827420D01*
X16561643Y-15731568D01*
X16788857Y-15600386D01*
X16993981Y-15436805D01*
X17004987Y-15424944D01*
X17033945Y-15393733D01*
X17172433Y-15244479D01*
X17320228Y-15027704D01*
X17434063Y-14791323D01*
X17511396Y-14540615D01*
X17550500Y-14281182D01*
X17550500Y-14018818D01*
X17511396Y-13759385D01*
X17434063Y-13508677D01*
X17422121Y-13483880D01*
X17320232Y-13272303D01*
X17320231Y-13272302D01*
X17320230Y-13272301D01*
X17320228Y-13272296D01*
X17172433Y-13055521D01*
X17162441Y-13044753D01*
X16993985Y-12863198D01*
X16828241Y-12731022D01*
X16788857Y-12699614D01*
X16561643Y-12568432D01*
X16317416Y-12472580D01*
X16317411Y-12472578D01*
X16317402Y-12472576D01*
X16099818Y-12422914D01*
X16061630Y-12414198D01*
X16061629Y-12414197D01*
X16061625Y-12414197D01*
X16061620Y-12414196D01*
X15865515Y-12399500D01*
X15865494Y-12399500D01*
X15734506Y-12399500D01*
X15734484Y-12399500D01*
X15538379Y-12414196D01*
X15538374Y-12414197D01*
X15282597Y-12472576D01*
X15282578Y-12472582D01*
X15038356Y-12568432D01*
X14811143Y-12699614D01*
X14606014Y-12863198D01*
X14427567Y-13055520D01*
X14279768Y-13272302D01*
X14279767Y-13272303D01*
X14165938Y-13508673D01*
X14088606Y-13759376D01*
X14088605Y-13759381D01*
X14088604Y-13759385D01*
X14073853Y-13857247D01*
X14049500Y-14018812D01*
X14049500Y-14281187D01*
X500Y-14281187D01*
X500Y-6000000D01*
X2104364Y-6000000D01*
X2161567Y-6213486D01*
X2161570Y-6213492D01*
X2261399Y-6427578D01*
X2396894Y-6621082D01*
X2563917Y-6788105D01*
X2757421Y-6923600D01*
X2971507Y-7023429D01*
X2971516Y-7023433D01*
X3185000Y-7080634D01*
X3185000Y-6185501D01*
X3292685Y-6234680D01*
X3399237Y-6250000D01*
X3470763Y-6250000D01*
X3577315Y-6234680D01*
X3685000Y-6185501D01*
X3685000Y-7080633D01*
X3898483Y-7023433D01*
X3898492Y-7023429D01*
X4112578Y-6923600D01*
X4306082Y-6788105D01*
X4473105Y-6621082D01*
X4608600Y-6427578D01*
X4708429Y-6213492D01*
X4708433Y-6213483D01*
X4741158Y-6091350D01*
X4777522Y-6031690D01*
X4840369Y-6001160D01*
X4909745Y-6009454D01*
X4963623Y-6053939D01*
X4979593Y-6087447D01*
X4999768Y-6153954D01*
X5097315Y-6336450D01*
X5097317Y-6336452D01*
X5228589Y-6496410D01*
X5325209Y-6575702D01*
X5388550Y-6627685D01*
X5571046Y-6725232D01*
X5769066Y-6785300D01*
X5769065Y-6785300D01*
X5787529Y-6787118D01*
X5975000Y-6805583D01*
X6180934Y-6785300D01*
X6378954Y-6725232D01*
X6561450Y-6627685D01*
X6721410Y-6496410D01*
X6852685Y-6336450D01*
X6950232Y-6153954D01*
X7010300Y-5955934D01*
X7030583Y-5750000D01*
X7459417Y-5750000D01*
X7479699Y-5955932D01*
X7507810Y-6048601D01*
X7539768Y-6153954D01*
X7637315Y-6336450D01*
X7637317Y-6336452D01*
X7768589Y-6496410D01*
X7865209Y-6575702D01*
X7928550Y-6627685D01*
X8111046Y-6725232D01*
X8309066Y-6785300D01*
X8309065Y-6785300D01*
X8327529Y-6787118D01*
X8515000Y-6805583D01*
X8720934Y-6785300D01*
X8918954Y-6725232D01*
X8918962Y-6725227D01*
X8920850Y-6724446D01*
X8921924Y-6724330D01*
X8924784Y-6723463D01*
X8924948Y-6724004D01*
X8990318Y-6716970D01*
X9052801Y-6748238D01*
X9055995Y-6751321D01*
X10491635Y-8186961D01*
X10498942Y-8194935D01*
X10523226Y-8223875D01*
X10523228Y-8223876D01*
X10523230Y-8223879D01*
X10523232Y-8223880D01*
X10523233Y-8223881D01*
X10555941Y-8242765D01*
X10565064Y-8248577D01*
X10596001Y-8270239D01*
X10596004Y-8270239D01*
X10600861Y-8272505D01*
X10617618Y-8279445D01*
X10622638Y-8281272D01*
X10622640Y-8281273D01*
X10659828Y-8287830D01*
X10670391Y-8290172D01*
X10706878Y-8299949D01*
X10744508Y-8296656D01*
X10755315Y-8296185D01*
X27741376Y-8296185D01*
X27808414Y-8315868D01*
X27915501Y-8384689D01*
X28039795Y-8421184D01*
X28039797Y-8421185D01*
X28039798Y-8421185D01*
X28169343Y-8421185D01*
X28169343Y-8421184D01*
X28293639Y-8384689D01*
X28402619Y-8314652D01*
X28402625Y-8314643D01*
X28404488Y-8313032D01*
X28406738Y-8312004D01*
X28410081Y-8309856D01*
X28410389Y-8310336D01*
X28468042Y-8284003D01*
X28537201Y-8293943D01*
X28573377Y-8319059D01*
X33117362Y-12863044D01*
X33133489Y-12882902D01*
X33138563Y-12890669D01*
X33161469Y-12908497D01*
X33171757Y-12917583D01*
X33172689Y-12918373D01*
X33181258Y-12924490D01*
X33188367Y-12929565D01*
X33192450Y-12932610D01*
X33200914Y-12939198D01*
X33230875Y-12962518D01*
X33237333Y-12966012D01*
X33243934Y-12969240D01*
X33290593Y-12983131D01*
X33295437Y-12984682D01*
X33341512Y-13000500D01*
X33341515Y-13000501D01*
X33348730Y-13001704D01*
X33356044Y-13002616D01*
X33356046Y-13002617D01*
X33356047Y-13002616D01*
X33356048Y-13002617D01*
X33404668Y-13000606D01*
X33409793Y-13000500D01*
X34150789Y-13000500D01*
X34176234Y-13003138D01*
X34185315Y-13005043D01*
X34210673Y-13001881D01*
X34214123Y-13001452D01*
X34227764Y-13000605D01*
X34229026Y-13000500D01*
X34229040Y-13000500D01*
X34237071Y-12999159D01*
X34248014Y-12997334D01*
X34253063Y-12996597D01*
X34301393Y-12990573D01*
X34301399Y-12990569D01*
X34308456Y-12988468D01*
X34315377Y-12986092D01*
X34315381Y-12986092D01*
X34358216Y-12962909D01*
X34362729Y-12960586D01*
X34406484Y-12939198D01*
X34406486Y-12939195D01*
X34412461Y-12934929D01*
X34418256Y-12930419D01*
X34418255Y-12930419D01*
X34418258Y-12930418D01*
X34451255Y-12894572D01*
X34454732Y-12890948D01*
X34614662Y-12731019D01*
X34667401Y-12699727D01*
X34789069Y-12664004D01*
X34898049Y-12593967D01*
X34982882Y-12496063D01*
X35036697Y-12378226D01*
X35055133Y-12250000D01*
X35036697Y-12121774D01*
X34982882Y-12003937D01*
X34898049Y-11906033D01*
X34789069Y-11835996D01*
X34789065Y-11835994D01*
X34789064Y-11835994D01*
X34664774Y-11799500D01*
X34664772Y-11799500D01*
X34569697Y-11799500D01*
X34502658Y-11779815D01*
X34456903Y-11727011D01*
X34446959Y-11693147D01*
X34436697Y-11621774D01*
X34382882Y-11503938D01*
X34382882Y-11503937D01*
X34298049Y-11406033D01*
X34189069Y-11335996D01*
X34189065Y-11335994D01*
X34189064Y-11335994D01*
X34064774Y-11299500D01*
X34064772Y-11299500D01*
X33935228Y-11299500D01*
X33935226Y-11299500D01*
X33810935Y-11335994D01*
X33810932Y-11335995D01*
X33810931Y-11335996D01*
X33703845Y-11404816D01*
X33636806Y-11424500D01*
X33586189Y-11424500D01*
X33519150Y-11404815D01*
X33498508Y-11388181D01*
X32983443Y-10873117D01*
X32949958Y-10811794D01*
X32948388Y-10803095D01*
X32936697Y-10721774D01*
X32882882Y-10603937D01*
X32798049Y-10506033D01*
X32689069Y-10435996D01*
X32689065Y-10435994D01*
X32689064Y-10435994D01*
X32564774Y-10399500D01*
X32564772Y-10399500D01*
X32435228Y-10399500D01*
X32435226Y-10399500D01*
X32310935Y-10435994D01*
X32310932Y-10435995D01*
X32310931Y-10435996D01*
X32259677Y-10468934D01*
X32201950Y-10506033D01*
X32117118Y-10603937D01*
X32117116Y-10603940D01*
X32107443Y-10625120D01*
X32061687Y-10677923D01*
X31994647Y-10697606D01*
X31927608Y-10677920D01*
X31906969Y-10661287D01*
X29141389Y-7895707D01*
X29107904Y-7834384D01*
X29105070Y-7808026D01*
X29105070Y-7750657D01*
X29107709Y-7725210D01*
X29109613Y-7716131D01*
X29106022Y-7687323D01*
X29105174Y-7673671D01*
X29105070Y-7672417D01*
X29105070Y-7672406D01*
X29101899Y-7653412D01*
X29101164Y-7648360D01*
X29100729Y-7644869D01*
X29095143Y-7600054D01*
X29095139Y-7600047D01*
X29093045Y-7593012D01*
X29090662Y-7586068D01*
X29090662Y-7586065D01*
X29067490Y-7543248D01*
X29065146Y-7538693D01*
X29043768Y-7494962D01*
X29039505Y-7488992D01*
X29034987Y-7483187D01*
X28999157Y-7450203D01*
X28995460Y-7446655D01*
X27718224Y-6169418D01*
X27702098Y-6149561D01*
X27697024Y-6141794D01*
X27674111Y-6123960D01*
X27663835Y-6114885D01*
X27662896Y-6114090D01*
X27662894Y-6114088D01*
X27647238Y-6102910D01*
X27643131Y-6099848D01*
X27627199Y-6087448D01*
X27604713Y-6069946D01*
X27604711Y-6069945D01*
X27598227Y-6066436D01*
X27591654Y-6063222D01*
X27544996Y-6049331D01*
X27540119Y-6047769D01*
X27494071Y-6031961D01*
X27486874Y-6030760D01*
X27479537Y-6029845D01*
X27474625Y-6030049D01*
X27406829Y-6013152D01*
X27394445Y-6000000D01*
X42744364Y-6000000D01*
X42801567Y-6213486D01*
X42801570Y-6213492D01*
X42901399Y-6427578D01*
X43036894Y-6621082D01*
X43203917Y-6788105D01*
X43397421Y-6923600D01*
X43611507Y-7023429D01*
X43611516Y-7023433D01*
X43825000Y-7080634D01*
X43825000Y-6185501D01*
X43932685Y-6234680D01*
X44039237Y-6250000D01*
X44110763Y-6250000D01*
X44217315Y-6234680D01*
X44325000Y-6185501D01*
X44325000Y-7080633D01*
X44538483Y-7023433D01*
X44538492Y-7023429D01*
X44752578Y-6923600D01*
X44946082Y-6788105D01*
X45113105Y-6621082D01*
X45248600Y-6427578D01*
X45348429Y-6213492D01*
X45348433Y-6213483D01*
X45381158Y-6091350D01*
X45417522Y-6031690D01*
X45480369Y-6001160D01*
X45549745Y-6009454D01*
X45603623Y-6053939D01*
X45619593Y-6087447D01*
X45639768Y-6153954D01*
X45737315Y-6336450D01*
X45737317Y-6336452D01*
X45868589Y-6496410D01*
X45965209Y-6575702D01*
X46028550Y-6627685D01*
X46211046Y-6725232D01*
X46409066Y-6785300D01*
X46409065Y-6785300D01*
X46427529Y-6787118D01*
X46615000Y-6805583D01*
X46820934Y-6785300D01*
X47018954Y-6725232D01*
X47201450Y-6627685D01*
X47361410Y-6496410D01*
X47492685Y-6336450D01*
X47590232Y-6153954D01*
X47650300Y-5955934D01*
X47670583Y-5750000D01*
X48099417Y-5750000D01*
X48119699Y-5955932D01*
X48147810Y-6048601D01*
X48179768Y-6153954D01*
X48277315Y-6336450D01*
X48277317Y-6336452D01*
X48408589Y-6496410D01*
X48505209Y-6575702D01*
X48568550Y-6627685D01*
X48751046Y-6725232D01*
X48949066Y-6785300D01*
X48949065Y-6785300D01*
X48967529Y-6787118D01*
X49155000Y-6805583D01*
X49360934Y-6785300D01*
X49558954Y-6725232D01*
X49741450Y-6627685D01*
X49901410Y-6496410D01*
X50032685Y-6336450D01*
X50130232Y-6153954D01*
X50190300Y-5955934D01*
X50210583Y-5750000D01*
X50639417Y-5750000D01*
X50659699Y-5955932D01*
X50687810Y-6048601D01*
X50719768Y-6153954D01*
X50817315Y-6336450D01*
X50817317Y-6336452D01*
X50948589Y-6496410D01*
X51045209Y-6575702D01*
X51108550Y-6627685D01*
X51291046Y-6725232D01*
X51489066Y-6785300D01*
X51489065Y-6785300D01*
X51507529Y-6787118D01*
X51695000Y-6805583D01*
X51900934Y-6785300D01*
X52098954Y-6725232D01*
X52281450Y-6627685D01*
X52441410Y-6496410D01*
X52572685Y-6336450D01*
X52670232Y-6153954D01*
X52730300Y-5955934D01*
X52750583Y-5750000D01*
X53179417Y-5750000D01*
X53199699Y-5955932D01*
X53227810Y-6048601D01*
X53259768Y-6153954D01*
X53357315Y-6336450D01*
X53357317Y-6336452D01*
X53488589Y-6496410D01*
X53585209Y-6575702D01*
X53648550Y-6627685D01*
X53831046Y-6725232D01*
X54029066Y-6785300D01*
X54029065Y-6785300D01*
X54047529Y-6787118D01*
X54235000Y-6805583D01*
X54440934Y-6785300D01*
X54638954Y-6725232D01*
X54821450Y-6627685D01*
X54981410Y-6496410D01*
X55112685Y-6336450D01*
X55210232Y-6153954D01*
X55270300Y-5955934D01*
X55290583Y-5750000D01*
X55719417Y-5750000D01*
X55739699Y-5955932D01*
X55767810Y-6048601D01*
X55799768Y-6153954D01*
X55897315Y-6336450D01*
X55897317Y-6336452D01*
X56028589Y-6496410D01*
X56125209Y-6575702D01*
X56188550Y-6627685D01*
X56371046Y-6725232D01*
X56569066Y-6785300D01*
X56569065Y-6785300D01*
X56587529Y-6787118D01*
X56775000Y-6805583D01*
X56980934Y-6785300D01*
X57178954Y-6725232D01*
X57361450Y-6627685D01*
X57521410Y-6496410D01*
X57652685Y-6336450D01*
X57750232Y-6153954D01*
X57810300Y-5955934D01*
X57830583Y-5750000D01*
X58259417Y-5750000D01*
X58279699Y-5955932D01*
X58307810Y-6048601D01*
X58339768Y-6153954D01*
X58437315Y-6336450D01*
X58437317Y-6336452D01*
X58568589Y-6496410D01*
X58665209Y-6575702D01*
X58728550Y-6627685D01*
X58911046Y-6725232D01*
X59109066Y-6785300D01*
X59109065Y-6785300D01*
X59127529Y-6787118D01*
X59315000Y-6805583D01*
X59520934Y-6785300D01*
X59718954Y-6725232D01*
X59901450Y-6627685D01*
X59911116Y-6619752D01*
X60804500Y-6619752D01*
X60816131Y-6678229D01*
X60816132Y-6678230D01*
X60860447Y-6744552D01*
X60926769Y-6788867D01*
X60926770Y-6788868D01*
X60985247Y-6800499D01*
X60985250Y-6800500D01*
X60985252Y-6800500D01*
X62724750Y-6800500D01*
X62724751Y-6800499D01*
X62739568Y-6797552D01*
X62783229Y-6788868D01*
X62783229Y-6788867D01*
X62783231Y-6788867D01*
X62849552Y-6744552D01*
X62893867Y-6678231D01*
X62893867Y-6678229D01*
X62893868Y-6678229D01*
X62903922Y-6627682D01*
X62905500Y-6619748D01*
X62905500Y-4880252D01*
X62905500Y-4880249D01*
X62905499Y-4880247D01*
X62893868Y-4821770D01*
X62893867Y-4821769D01*
X62849552Y-4755447D01*
X62783230Y-4711132D01*
X62783229Y-4711131D01*
X62724752Y-4699500D01*
X62724748Y-4699500D01*
X60985252Y-4699500D01*
X60985247Y-4699500D01*
X60926770Y-4711131D01*
X60926769Y-4711132D01*
X60860447Y-4755447D01*
X60816132Y-4821769D01*
X60816131Y-4821770D01*
X60804500Y-4880247D01*
X60804500Y-6619752D01*
X59911116Y-6619752D01*
X60061410Y-6496410D01*
X60192685Y-6336450D01*
X60290232Y-6153954D01*
X60350300Y-5955934D01*
X60370583Y-5750000D01*
X60350300Y-5544066D01*
X60290232Y-5346046D01*
X60192685Y-5163550D01*
X60117897Y-5072420D01*
X60061410Y-5003589D01*
X59911121Y-4880252D01*
X59901450Y-4872315D01*
X59718954Y-4774768D01*
X59520934Y-4714700D01*
X59520932Y-4714699D01*
X59520934Y-4714699D01*
X59315000Y-4694417D01*
X59109067Y-4714699D01*
X58911043Y-4774769D01*
X58823114Y-4821769D01*
X58728550Y-4872315D01*
X58728548Y-4872316D01*
X58728547Y-4872317D01*
X58568589Y-5003589D01*
X58437317Y-5163547D01*
X58339769Y-5346043D01*
X58279699Y-5544067D01*
X58259417Y-5750000D01*
X57830583Y-5750000D01*
X57810300Y-5544066D01*
X57750232Y-5346046D01*
X57652685Y-5163550D01*
X57577897Y-5072420D01*
X57521410Y-5003589D01*
X57371121Y-4880252D01*
X57361450Y-4872315D01*
X57178954Y-4774768D01*
X56980934Y-4714700D01*
X56980932Y-4714699D01*
X56980934Y-4714699D01*
X56775000Y-4694417D01*
X56569067Y-4714699D01*
X56371043Y-4774769D01*
X56283114Y-4821769D01*
X56188550Y-4872315D01*
X56188548Y-4872316D01*
X56188547Y-4872317D01*
X56028589Y-5003589D01*
X55897317Y-5163547D01*
X55799769Y-5346043D01*
X55739699Y-5544067D01*
X55719417Y-5750000D01*
X55290583Y-5750000D01*
X55270300Y-5544066D01*
X55210232Y-5346046D01*
X55112685Y-5163550D01*
X55037897Y-5072420D01*
X54981410Y-5003589D01*
X54831121Y-4880252D01*
X54821450Y-4872315D01*
X54638954Y-4774768D01*
X54440934Y-4714700D01*
X54440932Y-4714699D01*
X54440934Y-4714699D01*
X54235000Y-4694417D01*
X54029067Y-4714699D01*
X53831043Y-4774769D01*
X53743114Y-4821769D01*
X53648550Y-4872315D01*
X53648548Y-4872316D01*
X53648547Y-4872317D01*
X53488589Y-5003589D01*
X53357317Y-5163547D01*
X53259769Y-5346043D01*
X53199699Y-5544067D01*
X53179417Y-5750000D01*
X52750583Y-5750000D01*
X52730300Y-5544066D01*
X52670232Y-5346046D01*
X52572685Y-5163550D01*
X52497897Y-5072420D01*
X52441410Y-5003589D01*
X52291121Y-4880252D01*
X52281450Y-4872315D01*
X52098954Y-4774768D01*
X51900934Y-4714700D01*
X51900932Y-4714699D01*
X51900934Y-4714699D01*
X51695000Y-4694417D01*
X51489067Y-4714699D01*
X51291043Y-4774769D01*
X51203114Y-4821769D01*
X51108550Y-4872315D01*
X51108548Y-4872316D01*
X51108547Y-4872317D01*
X50948589Y-5003589D01*
X50817317Y-5163547D01*
X50719769Y-5346043D01*
X50659699Y-5544067D01*
X50639417Y-5750000D01*
X50210583Y-5750000D01*
X50190300Y-5544066D01*
X50130232Y-5346046D01*
X50032685Y-5163550D01*
X49957897Y-5072420D01*
X49901410Y-5003589D01*
X49751121Y-4880252D01*
X49741450Y-4872315D01*
X49558954Y-4774768D01*
X49360934Y-4714700D01*
X49360932Y-4714699D01*
X49360934Y-4714699D01*
X49155000Y-4694417D01*
X48949067Y-4714699D01*
X48751043Y-4774769D01*
X48663114Y-4821769D01*
X48568550Y-4872315D01*
X48568548Y-4872316D01*
X48568547Y-4872317D01*
X48408589Y-5003589D01*
X48277317Y-5163547D01*
X48179769Y-5346043D01*
X48119699Y-5544067D01*
X48099417Y-5750000D01*
X47670583Y-5750000D01*
X47650300Y-5544066D01*
X47590232Y-5346046D01*
X47492685Y-5163550D01*
X47417897Y-5072420D01*
X47361410Y-5003589D01*
X47211121Y-4880252D01*
X47201450Y-4872315D01*
X47018954Y-4774768D01*
X46820934Y-4714700D01*
X46820932Y-4714699D01*
X46820934Y-4714699D01*
X46615000Y-4694417D01*
X46409067Y-4714699D01*
X46211043Y-4774769D01*
X46123114Y-4821769D01*
X46028550Y-4872315D01*
X46028548Y-4872316D01*
X46028547Y-4872317D01*
X45868589Y-5003589D01*
X45737317Y-5163547D01*
X45639767Y-5346046D01*
X45619593Y-5412552D01*
X45581296Y-5470990D01*
X45517483Y-5499447D01*
X45448416Y-5488886D01*
X45396023Y-5442661D01*
X45381158Y-5408649D01*
X45348433Y-5286516D01*
X45348429Y-5286507D01*
X45248600Y-5072422D01*
X45248599Y-5072420D01*
X45113113Y-4878926D01*
X45113108Y-4878920D01*
X44946082Y-4711894D01*
X44752578Y-4576399D01*
X44538492Y-4476570D01*
X44538486Y-4476567D01*
X44325000Y-4419364D01*
X44325000Y-5314498D01*
X44217315Y-5265320D01*
X44110763Y-5250000D01*
X44039237Y-5250000D01*
X43932685Y-5265320D01*
X43825000Y-5314498D01*
X43825000Y-4419364D01*
X43824999Y-4419364D01*
X43611513Y-4476567D01*
X43611507Y-4476570D01*
X43397422Y-4576399D01*
X43397420Y-4576400D01*
X43203926Y-4711886D01*
X43203920Y-4711891D01*
X43036891Y-4878920D01*
X43036886Y-4878926D01*
X42901400Y-5072420D01*
X42901399Y-5072422D01*
X42801570Y-5286507D01*
X42801567Y-5286513D01*
X42744364Y-5499999D01*
X42744364Y-5500000D01*
X43641314Y-5500000D01*
X43615507Y-5540156D01*
X43575000Y-5678111D01*
X43575000Y-5821889D01*
X43615507Y-5959844D01*
X43641314Y-6000000D01*
X42744364Y-6000000D01*
X27394445Y-6000000D01*
X27358931Y-5962284D01*
X27345500Y-5906155D01*
X27345500Y-4880249D01*
X27345499Y-4880247D01*
X27333868Y-4821770D01*
X27333867Y-4821769D01*
X27289552Y-4755447D01*
X27223230Y-4711132D01*
X27223229Y-4711131D01*
X27164752Y-4699500D01*
X27164748Y-4699500D01*
X25425252Y-4699500D01*
X25425247Y-4699500D01*
X25366770Y-4711131D01*
X25366769Y-4711132D01*
X25300447Y-4755447D01*
X25256132Y-4821769D01*
X25256131Y-4821770D01*
X25244500Y-4880247D01*
X25244500Y-6619752D01*
X25256131Y-6678229D01*
X25256132Y-6678230D01*
X25300447Y-6744552D01*
X25366769Y-6788867D01*
X25366770Y-6788868D01*
X25425247Y-6800499D01*
X25425250Y-6800500D01*
X26863196Y-6800500D01*
X26930235Y-6820185D01*
X26975990Y-6872989D01*
X26985934Y-6942147D01*
X26956909Y-7005703D01*
X26930236Y-7028815D01*
X26917069Y-7037277D01*
X26850030Y-7056962D01*
X22095395Y-7056962D01*
X22028356Y-7037277D01*
X21982601Y-6984473D01*
X21972657Y-6915315D01*
X22001682Y-6851759D01*
X22024271Y-6831388D01*
X22086078Y-6788109D01*
X22253105Y-6621082D01*
X22388600Y-6427578D01*
X22488429Y-6213492D01*
X22488433Y-6213483D01*
X22521158Y-6091350D01*
X22557522Y-6031690D01*
X22620369Y-6001160D01*
X22689745Y-6009454D01*
X22743623Y-6053939D01*
X22759593Y-6087447D01*
X22779768Y-6153954D01*
X22877315Y-6336450D01*
X22877317Y-6336452D01*
X23008589Y-6496410D01*
X23105209Y-6575702D01*
X23168550Y-6627685D01*
X23351046Y-6725232D01*
X23549066Y-6785300D01*
X23549065Y-6785300D01*
X23567529Y-6787118D01*
X23755000Y-6805583D01*
X23960934Y-6785300D01*
X24158954Y-6725232D01*
X24341450Y-6627685D01*
X24501410Y-6496410D01*
X24632685Y-6336450D01*
X24730232Y-6153954D01*
X24790300Y-5955934D01*
X24810583Y-5750000D01*
X24790300Y-5544066D01*
X24730232Y-5346046D01*
X24632685Y-5163550D01*
X24557897Y-5072420D01*
X24501410Y-5003589D01*
X24351121Y-4880252D01*
X24341450Y-4872315D01*
X24158954Y-4774768D01*
X23960934Y-4714700D01*
X23960932Y-4714699D01*
X23960934Y-4714699D01*
X23755000Y-4694417D01*
X23549067Y-4714699D01*
X23351043Y-4774769D01*
X23263114Y-4821769D01*
X23168550Y-4872315D01*
X23168548Y-4872316D01*
X23168547Y-4872317D01*
X23008589Y-5003589D01*
X22877317Y-5163547D01*
X22779767Y-5346046D01*
X22759593Y-5412552D01*
X22721296Y-5470990D01*
X22657483Y-5499447D01*
X22588416Y-5488886D01*
X22536023Y-5442661D01*
X22521158Y-5408649D01*
X22488433Y-5286516D01*
X22488429Y-5286507D01*
X22388600Y-5072422D01*
X22388599Y-5072420D01*
X22253113Y-4878926D01*
X22253108Y-4878920D01*
X22086082Y-4711894D01*
X21892578Y-4576399D01*
X21678492Y-4476570D01*
X21678486Y-4476567D01*
X21465000Y-4419364D01*
X21465000Y-5314498D01*
X21357315Y-5265320D01*
X21250763Y-5250000D01*
X21179237Y-5250000D01*
X21072685Y-5265320D01*
X20965000Y-5314498D01*
X20965000Y-4419364D01*
X20964999Y-4419364D01*
X20751513Y-4476567D01*
X20751507Y-4476570D01*
X20537422Y-4576399D01*
X20537420Y-4576400D01*
X20343926Y-4711886D01*
X20343920Y-4711891D01*
X20176891Y-4878920D01*
X20176886Y-4878926D01*
X20041400Y-5072420D01*
X20041399Y-5072422D01*
X19941570Y-5286507D01*
X19941567Y-5286514D01*
X19908841Y-5408650D01*
X19872476Y-5468310D01*
X19809629Y-5498839D01*
X19740253Y-5490544D01*
X19686375Y-5446059D01*
X19670406Y-5412552D01*
X19650232Y-5346046D01*
X19552685Y-5163550D01*
X19477897Y-5072420D01*
X19421410Y-5003589D01*
X19271121Y-4880252D01*
X19261450Y-4872315D01*
X19078954Y-4774768D01*
X18880934Y-4714700D01*
X18880932Y-4714699D01*
X18880934Y-4714699D01*
X18675000Y-4694417D01*
X18469067Y-4714699D01*
X18271043Y-4774769D01*
X18183114Y-4821769D01*
X18088550Y-4872315D01*
X18088548Y-4872316D01*
X18088547Y-4872317D01*
X17928589Y-5003589D01*
X17797317Y-5163547D01*
X17699769Y-5346043D01*
X17639699Y-5544067D01*
X17619417Y-5750000D01*
X17639699Y-5955932D01*
X17667810Y-6048601D01*
X17699768Y-6153954D01*
X17797315Y-6336450D01*
X17797317Y-6336452D01*
X17928589Y-6496410D01*
X18025209Y-6575702D01*
X18088550Y-6627685D01*
X18271046Y-6725232D01*
X18469066Y-6785300D01*
X18469065Y-6785300D01*
X18487529Y-6787118D01*
X18675000Y-6805583D01*
X18880934Y-6785300D01*
X19078954Y-6725232D01*
X19261450Y-6627685D01*
X19421410Y-6496410D01*
X19552685Y-6336450D01*
X19650232Y-6153954D01*
X19670406Y-6087446D01*
X19708702Y-6029010D01*
X19772514Y-6000553D01*
X19841581Y-6011112D01*
X19893975Y-6057336D01*
X19908841Y-6091349D01*
X19941567Y-6213486D01*
X19941570Y-6213492D01*
X20041399Y-6427578D01*
X20176894Y-6621082D01*
X20343921Y-6788109D01*
X20405729Y-6831388D01*
X20449354Y-6885965D01*
X20456546Y-6955463D01*
X20425024Y-7017818D01*
X20364794Y-7053231D01*
X20334605Y-7056962D01*
X12873650Y-7056962D01*
X12806611Y-7037277D01*
X12785969Y-7020643D01*
X12056321Y-6290995D01*
X12022836Y-6229672D01*
X12027820Y-6159980D01*
X12029446Y-6155850D01*
X12030227Y-6153962D01*
X12030232Y-6153954D01*
X12090300Y-5955934D01*
X12110583Y-5750000D01*
X12539417Y-5750000D01*
X12559699Y-5955932D01*
X12587810Y-6048601D01*
X12619768Y-6153954D01*
X12717315Y-6336450D01*
X12717317Y-6336452D01*
X12848589Y-6496410D01*
X12945209Y-6575702D01*
X13008550Y-6627685D01*
X13191046Y-6725232D01*
X13389066Y-6785300D01*
X13389065Y-6785300D01*
X13407529Y-6787118D01*
X13595000Y-6805583D01*
X13800934Y-6785300D01*
X13998954Y-6725232D01*
X14181450Y-6627685D01*
X14341410Y-6496410D01*
X14472685Y-6336450D01*
X14570232Y-6153954D01*
X14630300Y-5955934D01*
X14650583Y-5750000D01*
X15079417Y-5750000D01*
X15099699Y-5955932D01*
X15127810Y-6048601D01*
X15159768Y-6153954D01*
X15257315Y-6336450D01*
X15257317Y-6336452D01*
X15388589Y-6496410D01*
X15485209Y-6575702D01*
X15548550Y-6627685D01*
X15731046Y-6725232D01*
X15929066Y-6785300D01*
X15929065Y-6785300D01*
X15947529Y-6787118D01*
X16135000Y-6805583D01*
X16340934Y-6785300D01*
X16538954Y-6725232D01*
X16721450Y-6627685D01*
X16881410Y-6496410D01*
X17012685Y-6336450D01*
X17110232Y-6153954D01*
X17170300Y-5955934D01*
X17190583Y-5750000D01*
X17170300Y-5544066D01*
X17110232Y-5346046D01*
X17012685Y-5163550D01*
X16937897Y-5072420D01*
X16881410Y-5003589D01*
X16731121Y-4880252D01*
X16721450Y-4872315D01*
X16538954Y-4774768D01*
X16340934Y-4714700D01*
X16340932Y-4714699D01*
X16340934Y-4714699D01*
X16135000Y-4694417D01*
X15929067Y-4714699D01*
X15731043Y-4774769D01*
X15643114Y-4821769D01*
X15548550Y-4872315D01*
X15548548Y-4872316D01*
X15548547Y-4872317D01*
X15388589Y-5003589D01*
X15257317Y-5163547D01*
X15159769Y-5346043D01*
X15099699Y-5544067D01*
X15079417Y-5750000D01*
X14650583Y-5750000D01*
X14630300Y-5544066D01*
X14570232Y-5346046D01*
X14472685Y-5163550D01*
X14397897Y-5072420D01*
X14341410Y-5003589D01*
X14191121Y-4880252D01*
X14181450Y-4872315D01*
X13998954Y-4774768D01*
X13800934Y-4714700D01*
X13800932Y-4714699D01*
X13800934Y-4714699D01*
X13595000Y-4694417D01*
X13389067Y-4714699D01*
X13191043Y-4774769D01*
X13103114Y-4821769D01*
X13008550Y-4872315D01*
X13008548Y-4872316D01*
X13008547Y-4872317D01*
X12848589Y-5003589D01*
X12717317Y-5163547D01*
X12619769Y-5346043D01*
X12559699Y-5544067D01*
X12539417Y-5750000D01*
X12110583Y-5750000D01*
X12090300Y-5544066D01*
X12030232Y-5346046D01*
X11932685Y-5163550D01*
X11857897Y-5072420D01*
X11801410Y-5003589D01*
X11651121Y-4880252D01*
X11641450Y-4872315D01*
X11458954Y-4774768D01*
X11260934Y-4714700D01*
X11260932Y-4714699D01*
X11260934Y-4714699D01*
X11055000Y-4694417D01*
X10849067Y-4714699D01*
X10651043Y-4774769D01*
X10563114Y-4821769D01*
X10468550Y-4872315D01*
X10468548Y-4872316D01*
X10468547Y-4872317D01*
X10308589Y-5003589D01*
X10177317Y-5163547D01*
X10079769Y-5346043D01*
X10019699Y-5544067D01*
X9999417Y-5750000D01*
X10019699Y-5955932D01*
X10047810Y-6048601D01*
X10079768Y-6153954D01*
X10177315Y-6336450D01*
X10177317Y-6336452D01*
X10308589Y-6496410D01*
X10405209Y-6575702D01*
X10468550Y-6627685D01*
X10651046Y-6725232D01*
X10849066Y-6785300D01*
X10849065Y-6785300D01*
X10867529Y-6787118D01*
X11055000Y-6805583D01*
X11260934Y-6785300D01*
X11458954Y-6725232D01*
X11458962Y-6725227D01*
X11460850Y-6724446D01*
X11461924Y-6724330D01*
X11464784Y-6723463D01*
X11464948Y-6724004D01*
X11530318Y-6716970D01*
X11592801Y-6748238D01*
X11595995Y-6751321D01*
X12278178Y-7433504D01*
X12311663Y-7494827D01*
X12306679Y-7564519D01*
X12264807Y-7620452D01*
X12199343Y-7644869D01*
X12190497Y-7645185D01*
X10921873Y-7645185D01*
X10854834Y-7625500D01*
X10834192Y-7608866D01*
X9516321Y-6290995D01*
X9482836Y-6229672D01*
X9487820Y-6159980D01*
X9489446Y-6155850D01*
X9490227Y-6153962D01*
X9490232Y-6153954D01*
X9550300Y-5955934D01*
X9570583Y-5750000D01*
X9550300Y-5544066D01*
X9490232Y-5346046D01*
X9392685Y-5163550D01*
X9317897Y-5072420D01*
X9261410Y-5003589D01*
X9111121Y-4880252D01*
X9101450Y-4872315D01*
X8918954Y-4774768D01*
X8720934Y-4714700D01*
X8720932Y-4714699D01*
X8720934Y-4714699D01*
X8515000Y-4694417D01*
X8309067Y-4714699D01*
X8111043Y-4774769D01*
X8023114Y-4821769D01*
X7928550Y-4872315D01*
X7928548Y-4872316D01*
X7928547Y-4872317D01*
X7768589Y-5003589D01*
X7637317Y-5163547D01*
X7539769Y-5346043D01*
X7479699Y-5544067D01*
X7459417Y-5750000D01*
X7030583Y-5750000D01*
X7010300Y-5544066D01*
X6950232Y-5346046D01*
X6852685Y-5163550D01*
X6777897Y-5072420D01*
X6721410Y-5003589D01*
X6571121Y-4880252D01*
X6561450Y-4872315D01*
X6378954Y-4774768D01*
X6180934Y-4714700D01*
X6180932Y-4714699D01*
X6180934Y-4714699D01*
X5975000Y-4694417D01*
X5769067Y-4714699D01*
X5571043Y-4774769D01*
X5483114Y-4821769D01*
X5388550Y-4872315D01*
X5388548Y-4872316D01*
X5388547Y-4872317D01*
X5228589Y-5003589D01*
X5097317Y-5163547D01*
X4999767Y-5346046D01*
X4979593Y-5412552D01*
X4941296Y-5470990D01*
X4877483Y-5499447D01*
X4808416Y-5488886D01*
X4756023Y-5442661D01*
X4741158Y-5408649D01*
X4708433Y-5286516D01*
X4708429Y-5286507D01*
X4608600Y-5072422D01*
X4608599Y-5072420D01*
X4473113Y-4878926D01*
X4473108Y-4878920D01*
X4306082Y-4711894D01*
X4112578Y-4576399D01*
X3898492Y-4476570D01*
X3898486Y-4476567D01*
X3685000Y-4419364D01*
X3685000Y-5314498D01*
X3577315Y-5265320D01*
X3470763Y-5250000D01*
X3399237Y-5250000D01*
X3292685Y-5265320D01*
X3185000Y-5314498D01*
X3185000Y-4419364D01*
X3184999Y-4419364D01*
X2971513Y-4476567D01*
X2971507Y-4476570D01*
X2757422Y-4576399D01*
X2757420Y-4576400D01*
X2563926Y-4711886D01*
X2563920Y-4711891D01*
X2396891Y-4878920D01*
X2396886Y-4878926D01*
X2261400Y-5072420D01*
X2261399Y-5072422D01*
X2161570Y-5286507D01*
X2161567Y-5286513D01*
X2104364Y-5499999D01*
X2104364Y-5500000D01*
X3001314Y-5500000D01*
X2975507Y-5540156D01*
X2935000Y-5678111D01*
X2935000Y-5821889D01*
X2975507Y-5959844D01*
X3001314Y-6000000D01*
X2104364Y-6000000D01*
X500Y-6000000D01*
X500Y-1005412D01*
X972Y-994605D01*
X4415Y-955250D01*
X4540Y-953904D01*
X16918Y-828221D01*
X20540Y-808318D01*
X37908Y-743498D01*
X38956Y-739828D01*
X66685Y-648419D01*
X72948Y-632049D01*
X103700Y-566102D01*
X106670Y-560161D01*
X149012Y-480944D01*
X156786Y-468289D01*
X199639Y-407089D01*
X205330Y-399587D01*
X261191Y-331521D01*
X269325Y-322547D01*
X322547Y-269325D01*
X331521Y-261191D01*
X399587Y-205330D01*
X407089Y-199639D01*
X468289Y-156786D01*
X480944Y-149012D01*
X560161Y-106670D01*
X566102Y-103700D01*
X632049Y-72948D01*
X648419Y-66685D01*
X739828Y-38957D01*
X743516Y-37903D01*
X808314Y-20541D01*
X828221Y-16918D01*
X954065Y-4524D01*
X955097Y-4428D01*
X994584Y-973D01*
X1005429Y-502D01*
X64350099Y-25500D01*
G37*
%TD.AperFunction*%
%TD*%
M02*
