M48
; DRILL file {KiCad 7.0.10} date Sun 18 Feb 2024 18:22:22 CET
; FORMAT={-:-/ absolute / inch / decimal}
; #@! TF.CreationDate,2024-02-18T18:22:22+01:00
; #@! TF.GenerationSoftware,Kicad,Pcbnew,7.0.10
; #@! TF.FileFunction,Plated,1,2,PTH
FMAT,2
INCH
; #@! TA.AperFunction,Plated,PTH,ViaDrill
T1C0.0118
; #@! TA.AperFunction,Plated,PTH,ViaDrill
T2C0.0157
; #@! TA.AperFunction,Plated,PTH,ComponentDrill
T3C0.0394
%
G90
G05
T1
X1.0714Y-0.2906
X1.1065Y-0.3138
X1.2795Y-0.4272
X1.3386Y-0.4626
X1.3622Y-0.4823
T2
X1.0354Y-0.0846
X1.0354Y-0.5374
X1.1614Y-0.2854
X1.2717Y-0.2697
X1.7343Y-0.0846
X1.7343Y-0.5374
T3
X0.1352Y-0.2264
X0.2352Y-0.2264
X0.3352Y-0.2264
X0.4352Y-0.2264
X0.5352Y-0.2264
X0.6352Y-0.2264
X0.7352Y-0.2264
X0.8352Y-0.2264
X0.9352Y-0.2264
X1.0352Y-0.2264
X1.7352Y-0.2264
X1.8352Y-0.2264
X1.9352Y-0.2264
X2.0352Y-0.2264
X2.1352Y-0.2264
X2.2352Y-0.2264
X2.3352Y-0.2264
X2.4352Y-0.2264
M30
